<svg id="图层_1" data-name="图层 1" xmlns="http://www.w3.org/2000/svg" viewBox="0 0 531.09 68.74"><title>realme Book &amp;amp; Pad</title><path d="M404.76,365.05c0-6.58,6.08-11,11.76-11,6.91,0,11.2,4.87,11.2,12.72v29.78h7.82V365.81c0-5.69,3.14-11.76,12-11.76,6.86,0,11.29,5,11.29,12.72v29.78h7.82V366.77c0-12.38-7-20.07-18.16-20.07a19,19,0,0,0-15.86,7.83c-2.34-3.81-6.69-7.83-14.64-7.83a17.4,17.4,0,0,0-13.19,5.43v-4.76h-7.83v49.18h7.83Z" transform="translate(-234.45 -329.07)"/><path d="M315.31,371.24c0-7.44-2.38-13.73-6.75-18.21a22.32,22.32,0,0,0-16.17-6.52c-14.34,0-24.74,10.68-24.74,25.4,0,14.9,10.1,25.31,24.55,25.31,9.57,0,17-4.13,21.57-11.94l.39-.67-6.7-4.31L307,381c-3.54,6-8.25,8.84-14.83,8.84a16.52,16.52,0,0,1-16.7-16.1h39.81Zm-39.45-4.53a16.68,16.68,0,0,1,16.34-12.86c7.79,0,13.78,5.13,15.16,12.86Z" transform="translate(-234.45 -329.07)"/><polygon points="7.82 25.64 30.22 25.64 30.22 18.3 0 18.3 0 67.58 7.82 67.58 7.82 25.64"/><path d="M497.82,397.22c9.58,0,17-4.13,21.58-11.94l.39-.67-6.7-4.31-.43.73c-3.54,6-8.25,8.84-14.84,8.84-9.16,0-16.21-6.86-16.69-16.1h39.81v-2.53c-.05-7.44-2.38-13.73-6.75-18.21A22.34,22.34,0,0,0,498,346.51c-14.34,0-24.74,10.68-24.74,25.4C473.28,386.81,483.37,397.22,497.82,397.22Zm-16.33-30.51a16.68,16.68,0,0,1,16.33-12.86c7.8,0,13.79,5.13,15.16,12.86Z" transform="translate(-234.45 -329.07)"/><rect x="144.51" y="3.77" width="7.82" height="63.71"/><path d="M345.89,397.41a23.88,23.88,0,0,0,15.2-5.26v4.5h7.73V347.46h-7.73V352a24.07,24.07,0,0,0-15.2-5.29A24.64,24.64,0,0,0,328,354a26.81,26.81,0,0,0,0,36.11A24.67,24.67,0,0,0,345.89,397.41Zm-17.1-25.31c0-10,7.19-17.58,16.72-17.58,9.89,0,16.53,7.07,16.53,17.58s-6.64,17.49-16.53,17.49C336,389.59,328.79,382.07,328.79,372.1Z" transform="translate(-234.45 -329.07)"/><path d="M604.45,377.46c0,10.8-8.68,19.09-19.57,19.09H555.76V329.07h27c10.5,0,18.89,8,18.89,18.41a16.79,16.79,0,0,1-7.33,14.08A17.18,17.18,0,0,1,604.45,377.46Zm-39.72-40v20.63h18a10.32,10.32,0,0,0,0-20.63Zm30.85,39.71a10.72,10.72,0,0,0-10.7-10.89H564.73v21.88h20.15A10.75,10.75,0,0,0,595.58,377.17Z" transform="translate(-234.45 -329.07)"/><path d="M609.85,372.45A25.4,25.4,0,1,1,635.2,397.8,25.14,25.14,0,0,1,609.85,372.45Zm42.42,0a17,17,0,1,0-17.07,17.16A16.82,16.82,0,0,0,652.27,372.45Z" transform="translate(-234.45 -329.07)"/><path d="M666,372.45a25.4,25.4,0,1,1,25.35,25.35A25.14,25.14,0,0,1,666,372.45Zm42.42,0a17,17,0,1,0-17.07,17.16A16.82,16.82,0,0,0,708.38,372.45Z" transform="translate(-234.45 -329.07)"/><path d="M755.13,396.55l-22-22.85v22.85h-8.38V329.07h8.38v40.58L754,348.35h10.8l-23,23.33,23.82,24.87Z" transform="translate(-234.45 -329.07)"/></svg>